<svg width="40" height="40" viewBox="0 0 40 40" fill="none" xmlns="http://www.w3.org/2000/svg">
<path opacity="0.2" d="M20.0007 36.6654C29.2054 36.6654 36.6673 29.2034 36.6673 19.9987C36.6673 10.794 29.2054 3.33203 20.0007 3.33203C10.7959 3.33203 3.33398 10.794 3.33398 19.9987C3.33398 29.2034 10.7959 36.6654 20.0007 36.6654Z" fill="#D45B53"/>
<path d="M21.7663 20.0016L25.5996 16.1682C26.0829 15.6849 26.0829 14.8849 25.5996 14.4016C25.1163 13.9182 24.3163 13.9182 23.8329 14.4016L19.9996 18.2349L16.1663 14.4016C15.6829 13.9182 14.8829 13.9182 14.3996 14.4016C13.9163 14.8849 13.9163 15.6849 14.3996 16.1682L18.2329 20.0016L14.3996 23.8349C13.9163 24.3182 13.9163 25.1182 14.3996 25.6016C14.6496 25.8516 14.9663 25.9682 15.2829 25.9682C15.5996 25.9682 15.9163 25.8516 16.1663 25.6016L19.9996 21.7682L23.8329 25.6016C24.0829 25.8516 24.3996 25.9682 24.7163 25.9682C25.0329 25.9682 25.3496 25.8516 25.5996 25.6016C26.0829 25.1182 26.0829 24.3182 25.5996 23.8349L21.7663 20.0016Z" fill="#D45B53"/>
</svg>
