<svg width="60" height="60" viewBox="0 0 60 60" fill="none" xmlns="http://www.w3.org/2000/svg">
<path opacity="0.2" d="M30 55C43.8071 55 55 43.8071 55 30C55 16.1929 43.8071 5 30 5C16.1929 5 5 16.1929 5 30C5 43.8071 16.1929 55 30 55Z" fill="#62A584"/>
<path d="M26.4496 38.948C25.9496 38.948 25.4746 38.748 25.1246 38.398L18.0496 31.323C17.3246 30.598 17.3246 29.398 18.0496 28.673C18.7746 27.948 19.9746 27.948 20.6996 28.673L26.4496 34.423L39.2996 21.573C40.0246 20.848 41.2246 20.848 41.9496 21.573C42.6746 22.298 42.6746 23.498 41.9496 24.223L27.7746 38.398C27.4246 38.748 26.9496 38.948 26.4496 38.948Z" fill="#43936C"/>
</svg>
