<svg width="25" height="24" viewBox="0 0 25 24" fill="none" xmlns="http://www.w3.org/2000/svg">
<path d="M16.25 7.2001C16.25 8.15488 15.8549 9.07055 15.1517 9.74568C14.4484 10.4208 13.4946 10.8001 12.5 10.8001C11.5054 10.8001 10.5516 10.4208 9.84835 9.74568C9.14509 9.07055 8.75 8.15488 8.75 7.2001C8.75 6.24532 9.14509 5.32964 9.84835 4.65451C10.5516 3.97938 11.5054 3.6001 12.5 3.6001C13.4946 3.6001 14.4484 3.97938 15.1517 4.65451C15.8549 5.32964 16.25 6.24532 16.25 7.2001ZM22.5 9.6001C22.5 10.2366 22.2366 10.8471 21.7678 11.2972C21.2989 11.7472 20.663 12.0001 20 12.0001C19.337 12.0001 18.7011 11.7472 18.2322 11.2972C17.7634 10.8471 17.5 10.2366 17.5 9.6001C17.5 8.96358 17.7634 8.35313 18.2322 7.90304C18.7011 7.45295 19.337 7.2001 20 7.2001C20.663 7.2001 21.2989 7.45295 21.7678 7.90304C22.2366 8.35313 22.5 8.96358 22.5 9.6001ZM17.5 18.0001C17.5 16.7271 16.9732 15.5062 16.0355 14.606C15.0979 13.7058 13.8261 13.2001 12.5 13.2001C11.1739 13.2001 9.90215 13.7058 8.96447 14.606C8.02678 15.5062 7.5 16.7271 7.5 18.0001V21.6001H17.5V18.0001ZM7.5 9.6001C7.5 10.2366 7.23661 10.8471 6.76777 11.2972C6.29893 11.7472 5.66304 12.0001 5 12.0001C4.33696 12.0001 3.70107 11.7472 3.23223 11.2972C2.76339 10.8471 2.5 10.2366 2.5 9.6001C2.5 8.96358 2.76339 8.35313 3.23223 7.90304C3.70107 7.45295 4.33696 7.2001 5 7.2001C5.66304 7.2001 6.29893 7.45295 6.76777 7.90304C7.23661 8.35313 7.5 8.96358 7.5 9.6001ZM20 21.6001V18.0001C20.0018 16.78 19.6791 15.5797 19.0625 14.5129C19.6167 14.3767 20.1959 14.3639 20.7561 14.4754C21.3162 14.5868 21.8424 14.8196 22.2946 15.156C22.7468 15.4924 23.1129 15.9235 23.3652 16.4164C23.6174 16.9092 23.749 17.4509 23.75 18.0001V21.6001H20ZM5.9375 14.5129C5.32093 15.5798 4.99825 16.78 5 18.0001V21.6001H1.25V18.0001C1.24976 17.4505 1.38058 16.9082 1.63243 16.4147C1.88429 15.9212 2.25049 15.4896 2.70298 15.153C3.15547 14.8164 3.68223 14.5837 4.24289 14.4727C4.80355 14.3618 5.38323 14.3755 5.9375 14.5129Z" fill="black"/>
</svg>
