<svg width="40" height="40" viewBox="0 0 40 40" fill="none" xmlns="http://www.w3.org/2000/svg">
<path opacity="0.2" d="M17.9168 4.08516C19.0835 3.10182 20.9668 3.10182 22.1001 4.08516L24.7335 6.33516C25.2335 6.75182 26.1835 7.10182 26.8501 7.10182H29.6835C31.4501 7.10182 32.9001 8.55182 32.9001 10.3185V13.1518C32.9001 13.8185 33.2501 14.7518 33.6668 15.2518L35.9168 17.8852C36.9001 19.0518 36.9001 20.9352 35.9168 22.0685L33.6668 24.7018C33.2501 25.2018 32.9001 26.1352 32.9001 26.8018V29.6352C32.9001 31.4018 31.4501 32.8518 29.6835 32.8518H26.8501C26.1835 32.8518 25.2501 33.2018 24.7501 33.6185L22.1168 35.8685C20.9501 36.8518 19.0668 36.8518 17.9335 35.8685L15.3001 33.6185C14.8001 33.2018 13.8501 32.8518 13.2001 32.8518H10.2835C8.5168 32.8518 7.0668 31.4018 7.0668 29.6352V26.7852C7.0668 26.1352 6.73346 25.1852 6.3168 24.7018L4.0668 22.0518C3.10013 20.9018 3.10013 19.0352 4.0668 17.8852L6.3168 15.2352C6.73346 14.7352 7.0668 13.8018 7.0668 13.1518V10.3352C7.0668 8.56849 8.5168 7.11849 10.2835 7.11849H13.1668C13.8335 7.11849 14.7668 6.76849 15.2668 6.35182L17.9168 4.08516Z" fill="#D59151"/>
<path d="M20.001 25.6357C20.4477 25.6359 20.8164 26.0054 20.8164 26.4521C20.8162 26.9043 20.4587 27.2674 20.001 27.2676C19.5542 27.2676 19.1847 26.8988 19.1846 26.4521C19.1846 25.9997 19.543 25.6357 20.001 25.6357Z" stroke="#D59151" strokeWidth="1.70139"/>
<path d="M20 13.1514C20.2135 13.1514 20.3994 13.3373 20.3994 13.5508V21.6006C20.3994 21.8455 20.2155 22.0166 20 22.0166C19.7865 22.0166 19.6006 21.8307 19.6006 21.6172V13.5508C19.6006 13.3373 19.7865 13.1514 20 13.1514Z" stroke="#D59151" strokeWidth="1.70139"/>
</svg>
